<?xml version="1.0" encoding="UTF-8"?>
<!DOCTYPE svg PUBLIC "-//W3C//DTD SVG 1.1//EN" "http://www.w3.org/Graphics/SVG/1.1/DTD/svg11.dtd">
<!-- Creator: CorelDRAW -->
<svg xmlns="http://www.w3.org/2000/svg" xml:space="preserve" width="352.461mm" height="38.4924mm" version="1.1" style="shape-rendering:geometricPrecision; text-rendering:geometricPrecision; image-rendering:optimizeQuality; fill-rule:evenodd; clip-rule:evenodd"
viewBox="0 0 18661.09 2037.99"
 xmlns:xlink="http://www.w3.org/1999/xlink"
 xmlns:xodm="http://www.corel.com/coreldraw/odm/2003">
 <defs>
  <style type="text/css">
   <![CDATA[
    .fil0 {fill:#ED3237;fill-rule:nonzero}
   ]]>
  </style>
 </defs>
 <g id="__x0023_Layer_x0020_1">
  <metadata id="CorelCorpID_0Corel-Layer"/>
  <g id="_2585621399968">
   <path class="fil0" d="M17485.33 2037.99l0 -1018.99 -391.92 0 783.84 -1018.99 783.84 1018.99 -391.92 0 0 1018.99 -783.84 0zm0 -509.5m-195.96 -509.5m195.96 -509.5m783.84 0m195.96 509.5m-195.96 509.5m-391.92 509.5"/>
   <path class="fil0" d="M391.92 2037.99l0 -1018.99 -391.92 0 783.84 -1018.99 783.84 1018.99 -391.92 0 0 1018.99 -783.84 0zm0 -509.5m-195.96 -509.5m195.96 -509.5m783.84 0m195.96 509.5m-195.96 509.5m-391.92 509.5"/>
  </g>
 </g>
</svg>
